<mxfile host="app.diagrams.net" modified="2022-03-09T22:53:59.482Z" agent="5.0 (Windows)" etag="r7AXyCNfhoynruIwbjb0" version="17.0.0" type="github">
  <diagram id="fRwQeOEtESu02H5Lkgcf" name="Page-1">
    <mxGraphModel dx="868" dy="450" grid="1" gridSize="10" guides="1" tooltips="1" connect="1" arrows="1" fold="1" page="1" pageScale="1" pageWidth="850" pageHeight="1100" math="0" shadow="0">
      <root>
        <mxCell id="0" />
        <mxCell id="1" parent="0" />
        <mxCell id="ynevn4b2Pa2m6T_v8N2P-1" value="&lt;font style=&quot;font-size: 16px&quot;&gt;Player Attack&lt;/font&gt;" style="edgeStyle=orthogonalEdgeStyle;rounded=0;orthogonalLoop=1;jettySize=auto;html=1;exitX=0.5;exitY=0;exitDx=0;exitDy=0;entryX=0;entryY=0.5;entryDx=0;entryDy=0;strokeWidth=3;" edge="1" parent="1" source="ynevn4b2Pa2m6T_v8N2P-6" target="ynevn4b2Pa2m6T_v8N2P-3">
          <mxGeometry x="0.4426" relative="1" as="geometry">
            <mxPoint as="offset" />
          </mxGeometry>
        </mxCell>
        <mxCell id="ynevn4b2Pa2m6T_v8N2P-2" style="edgeStyle=orthogonalEdgeStyle;rounded=0;orthogonalLoop=1;jettySize=auto;html=1;exitX=0.5;exitY=1;exitDx=0;exitDy=0;entryX=0;entryY=0.5;entryDx=0;entryDy=0;strokeWidth=3;" edge="1" parent="1" source="ynevn4b2Pa2m6T_v8N2P-6" target="ynevn4b2Pa2m6T_v8N2P-8">
          <mxGeometry relative="1" as="geometry" />
        </mxCell>
        <mxCell id="ynevn4b2Pa2m6T_v8N2P-3" value="&lt;div&gt;1. Take Damage&lt;br&gt;&lt;/div&gt;" style="ellipse;whiteSpace=wrap;html=1;aspect=fixed;fontSize=24;strokeWidth=3;" vertex="1" parent="1">
          <mxGeometry x="275" y="30" width="150" height="150" as="geometry" />
        </mxCell>
        <mxCell id="ynevn4b2Pa2m6T_v8N2P-4" style="edgeStyle=orthogonalEdgeStyle;rounded=0;orthogonalLoop=1;jettySize=auto;html=1;exitX=1;exitY=0.5;exitDx=0;exitDy=0;entryX=0;entryY=0.5;entryDx=0;entryDy=0;strokeWidth=3;" edge="1" parent="1" source="ynevn4b2Pa2m6T_v8N2P-6" target="ynevn4b2Pa2m6T_v8N2P-7">
          <mxGeometry relative="1" as="geometry" />
        </mxCell>
        <mxCell id="ynevn4b2Pa2m6T_v8N2P-5" value="&lt;div style=&quot;font-size: 16px;&quot;&gt;&lt;font style=&quot;font-size: 16px;&quot;&gt;Player&lt;/font&gt;&lt;/div&gt;&lt;div style=&quot;font-size: 16px;&quot;&gt;&lt;font style=&quot;font-size: 16px;&quot;&gt;Input&lt;/font&gt;&lt;br style=&quot;font-size: 16px;&quot;&gt;&lt;/div&gt;" style="edgeLabel;html=1;align=center;verticalAlign=middle;resizable=0;points=[];fontSize=16;labelBackgroundColor=#FFFFFF;" vertex="1" connectable="0" parent="ynevn4b2Pa2m6T_v8N2P-4">
          <mxGeometry x="-0.2952" y="-1" relative="1" as="geometry">
            <mxPoint x="3" y="-1" as="offset" />
          </mxGeometry>
        </mxCell>
        <mxCell id="ynevn4b2Pa2m6T_v8N2P-6" value="&lt;font style=&quot;font-size: 24px&quot;&gt;Player&lt;/font&gt;" style="rounded=1;whiteSpace=wrap;html=1;strokeWidth=3;" vertex="1" parent="1">
          <mxGeometry x="50" y="245" width="120" height="60" as="geometry" />
        </mxCell>
        <mxCell id="ynevn4b2Pa2m6T_v8N2P-7" value="&lt;div&gt;2. In Game&lt;/div&gt;&lt;div&gt;Item Interaction&lt;br&gt;&lt;/div&gt;" style="ellipse;whiteSpace=wrap;html=1;aspect=fixed;fontSize=24;strokeWidth=3;" vertex="1" parent="1">
          <mxGeometry x="275" y="200" width="150" height="150" as="geometry" />
        </mxCell>
        <mxCell id="ynevn4b2Pa2m6T_v8N2P-8" value="&lt;div&gt;3. Vehicle&lt;/div&gt;&lt;div&gt;Interaction&lt;br&gt;&lt;/div&gt;" style="ellipse;whiteSpace=wrap;html=1;aspect=fixed;fontSize=24;strokeWidth=3;" vertex="1" parent="1">
          <mxGeometry x="275" y="370" width="150" height="150" as="geometry" />
        </mxCell>
        <mxCell id="ynevn4b2Pa2m6T_v8N2P-9" value="&lt;div style=&quot;font-size: 16px;&quot;&gt;&lt;font style=&quot;font-size: 16px;&quot;&gt;Player&lt;/font&gt;&lt;/div&gt;&lt;div style=&quot;font-size: 16px;&quot;&gt;&lt;font style=&quot;font-size: 16px;&quot;&gt;Input&lt;/font&gt;&lt;br style=&quot;font-size: 16px;&quot;&gt;&lt;/div&gt;" style="edgeLabel;html=1;align=center;verticalAlign=middle;resizable=0;points=[];fontSize=16;labelBackgroundColor=#FFFFFF;" vertex="1" connectable="0" parent="1">
          <mxGeometry x="180" y="440" as="geometry" />
        </mxCell>
      </root>
    </mxGraphModel>
  </diagram>
</mxfile>
